# xmcd
#
# Track frame offsets:
#	150
#	13645
#	28268
#	42653
#	56546
#	70861
#	84685
#	98021
#	112430
#	126460
#	139777
#	153915
#	167157
#	179881
#	194502
#	209762
#	223276
#	236515
#
# Disc length: 3319 seconds
#
# Revision: 0
# Processed by: cddbd v1.4PL0 Copyright (c) Steve Scherf et al.
# Submitted via: dBpowerAMP V4.0
#
DISCID=220cf512
DTITLE=Kokomo Arnold - The Essential Kokomo Arnold Disc 2
DYEAR=2002
DGENRE=General Blues
TTITLE0=Mean Old Twister
TTITLE1=Feels So Good
TTITLE2=The Twelves (Dirty Dozens)
TTITLE3=Red Beans And Rice
TTITLE4=Laugh And Grin Blues
TTITLE5=Working On The Project w Peetie Wheatstraw
TTITLE6=Policy Wheel Blues
TTITLE7=Hobo Blues
TTITLE8=Stop Look And Listen
TTITLE9=Grass Cutter Blues
TTITLE10=Fool Man Blues
TTITLE11=Milk Cow Blues No. 4
TTITLE12=The Honey Dripper
TTITLE13=Feels So Good
TTITLE14=Old Black Cat Blues
TTITLE15=Try Some Of That
TTITLE16=Bull Headed Woman Blues
TTITLE17=Bad Luck Blues
EXTD=william hale
EXTT0=
EXTT1=
EXTT2=
EXTT3=
EXTT4=
EXTT5=
EXTT6=
EXTT7=
EXTT8=
EXTT9=
EXTT10=
EXTT11=
EXTT12=
EXTT13=
EXTT14=
EXTT15=
EXTT16=
EXTT17=
PLAYORDER=
